<svg xmlns="http://www.w3.org/2000/svg" width="1200" height="800" viewBox="0 0 1200 800">
  <rect width="1200" height="800" fill="#f4f6f8"/>
  <rect width="240" height="800" fill="#1e3a5f"/>
  <rect x="28" y="36" width="110" height="14" rx="2" fill="#ffffff"/>
  <rect x="28" y="120" width="160" height="10" rx="2" fill="#8b9cb8"/>
  <rect x="28" y="150" width="140" height="10" rx="2" fill="#c45c26"/>
  <rect x="28" y="180" width="150" height="10" rx="2" fill="#8b9cb8"/>
  <rect x="28" y="210" width="120" height="10" rx="2" fill="#8b9cb8"/>
  <rect x="280" y="36" width="220" height="22" rx="3" fill="#1e3a5f"/>
  <rect x="280" y="80" width="860" height="140" rx="8" fill="#ffffff"/>
  <rect x="304" y="104" width="120" height="10" fill="#8a8a8a"/>
  <rect x="304" y="128" width="280" height="28" fill="#1e3a5f"/>
  <rect x="304" y="172" width="180" height="10" fill="#c45c26"/>
  <rect x="280" y="248" width="270" height="200" rx="8" fill="#ffffff"/>
  <rect x="304" y="272" width="90" height="10" fill="#8a8a8a"/>
  <rect x="304" y="300" width="160" height="18" fill="#2c2c2c"/>
  <rect x="304" y="360" width="200" height="8" fill="#e6e6e6"/>
  <rect x="304" y="380" width="160" height="8" fill="#e6e6e6"/>
  <rect x="570" y="248" width="270" height="200" rx="8" fill="#ffffff"/>
  <rect x="594" y="272" width="90" height="10" fill="#8a8a8a"/>
  <rect x="594" y="300" width="160" height="18" fill="#2c2c2c"/>
  <rect x="594" y="360" width="200" height="8" fill="#e6e6e6"/>
  <rect x="594" y="380" width="160" height="8" fill="#e6e6e6"/>
  <rect x="860" y="248" width="280" height="200" rx="8" fill="#ffffff"/>
  <rect x="884" y="272" width="90" height="10" fill="#8a8a8a"/>
  <rect x="884" y="300" width="160" height="18" fill="#2c2c2c"/>
  <rect x="280" y="472" width="860" height="280" rx="8" fill="#ffffff"/>
  <rect x="304" y="496" width="140" height="12" fill="#1e3a5f"/>
  <rect x="304" y="536" width="800" height="10" fill="#e6e6e6"/>
  <rect x="304" y="564" width="800" height="10" fill="#e6e6e6"/>
  <rect x="304" y="592" width="640" height="10" fill="#e6e6e6"/>
  <rect x="304" y="620" width="720" height="10" fill="#e6e6e6"/>
  <rect x="304" y="660" width="120" height="32" rx="4" fill="#c45c26"/>
</svg>
